<svg width="217" height="233" viewBox="0 0 217 233" fill="none" xmlns="http://www.w3.org/2000/svg">
<path d="M7.15734 102.133C6.08912 99.2634 5.89599 96.1415 6.60237 93.1622C7.30875 90.1829 8.88291 87.48 11.1257 85.3955C13.3685 83.311 16.1792 81.9385 19.2021 81.4517C22.2251 80.9649 25.3245 81.3856 28.1083 82.6606C30.8921 83.9356 33.2353 86.0077 34.8413 88.6146C36.4473 91.2215 37.244 94.2462 37.1306 97.306C37.0173 100.366 35.999 103.323 34.2045 105.804C32.41 108.285 29.92 110.178 27.0495 111.244C23.2033 112.671 18.9477 112.514 15.2178 110.805C11.4878 109.097 8.58862 105.978 7.15734 102.133Z" fill="#DBDBDB"/>
<path d="M29.7288 97.7457C27.9515 102.704 22.753 106.125 22.753 106.125C22.753 106.125 16.8819 103.99 14.0425 99.5817C11.6514 95.899 12.3826 91.5384 15.3288 90.2574C19.5452 88.4214 21.5627 95.9096 21.5627 95.9096C21.5627 95.9096 21.7922 88.1599 26.3289 88.9711C29.4886 89.5369 31.2073 93.5933 29.7288 97.7457Z" fill="white"/>
<path d="M198.217 144.89C196.77 145.626 195.215 146.125 193.611 146.369C189.762 146.965 185.829 146.088 182.598 143.913C179.367 141.738 177.075 138.424 176.179 134.634C175.283 130.843 175.849 126.854 177.764 123.462C179.679 120.07 182.803 117.526 186.511 116.335C190.22 115.145 194.241 115.396 197.773 117.04C201.304 118.683 204.086 121.598 205.563 125.202C207.041 128.806 207.105 132.834 205.743 136.484C204.382 140.133 201.694 143.135 198.217 144.89Z" fill="#DBDBDB"/>
<path d="M196.082 129.721C196.001 130.65 195.647 131.533 195.064 132.259C194.481 132.986 193.695 133.523 192.807 133.803C191.918 134.083 190.967 134.093 190.073 133.832C189.178 133.571 188.382 133.05 187.784 132.336C187.185 131.622 186.813 130.746 186.712 129.82C186.612 128.894 186.788 127.959 187.22 127.133C187.651 126.308 188.318 125.629 189.135 125.182C189.953 124.735 190.884 124.541 191.812 124.624C193.054 124.736 194.2 125.335 195.001 126.29C195.801 127.246 196.19 128.48 196.082 129.721Z" fill="white"/>
<path d="M198.382 142.953L198.217 144.89C196.77 145.626 195.215 146.125 193.611 146.369C191.584 146.687 189.513 146.597 187.521 146.103C185.529 145.609 183.656 144.721 182.013 143.492L182.178 141.56C182.27 140.495 182.57 139.459 183.062 138.511C183.554 137.563 184.227 136.721 185.045 136.033C185.862 135.345 186.807 134.825 187.825 134.502C188.843 134.179 189.915 134.06 190.98 134.151C192.044 134.243 193.08 134.543 194.028 135.035C194.976 135.527 195.819 136.201 196.506 137.018C197.194 137.835 197.715 138.78 198.037 139.798C198.36 140.816 198.479 141.888 198.388 142.953H198.382Z" fill="white"/>
<path d="M190.738 37.941C199.376 34.262 203.396 24.2775 199.717 15.6399C196.038 7.00221 186.053 2.98238 177.416 6.6613C168.778 10.3402 164.758 20.3248 168.437 28.9624C172.116 37.6001 182.101 41.6199 190.738 37.941Z" fill="#DBDBDB"/>
<path fill-rule="evenodd" clip-rule="evenodd" d="M181.751 29.0545C181.303 28.7716 180.913 28.3606 180.31 28.4193C180.081 28.4193 180.129 28.2485 180.129 28.1258C180.129 25.8574 180.129 23.5998 180.129 21.3314C180.129 21.1713 180.129 21.0325 180.321 20.9418C182.05 20.0718 182.797 18.3532 183.86 16.8908C184.403 16.1619 184.793 15.3312 185.009 14.4483C185.224 13.5653 185.26 12.648 185.114 11.7509C185.039 11.2439 185.279 11.0144 185.738 10.9076C185.969 10.8301 186.219 10.8282 186.451 10.902C186.684 10.9759 186.886 11.1218 187.03 11.3186C187.527 12.2437 187.861 13.2476 188.017 14.2861C188.119 15.1401 187.809 15.9781 187.702 16.8267C187.622 17.4512 187.478 18.065 187.361 18.6948C187.51 18.8015 187.686 18.7481 187.852 18.7481H193.59C194.395 18.7481 194.79 18.9776 194.902 19.5114C194.964 19.841 194.915 20.1816 194.765 20.4813C194.615 20.7809 194.371 21.0233 194.07 21.1713C193.926 21.2407 193.664 21.1713 193.648 21.4008C193.632 21.6303 193.899 21.6036 194.033 21.6997C194.721 22.1747 194.593 23.1514 193.792 23.7172C193.6 23.8559 193.227 23.7919 193.216 24.0748C193.205 24.3576 193.563 24.2989 193.723 24.4537C194.257 24.9875 194 26.0549 193.189 26.4552C193.075 26.4914 192.963 26.5342 192.853 26.5833C192.757 26.6474 192.666 26.7221 192.853 26.8502C193.68 27.4426 193.664 28.2646 192.853 28.8677L192.602 29.0438C192.3 29.228 191.945 29.3068 191.593 29.268C188.594 29.268 185.594 29.268 182.595 29.268C182.447 29.2936 182.296 29.2878 182.15 29.251C182.005 29.2142 181.869 29.1473 181.751 29.0545Z" fill="white"/>
<path fill-rule="evenodd" clip-rule="evenodd" d="M173.228 25.0622C173.228 23.6211 173.228 22.1854 173.228 20.7443C173.228 20.4561 173.254 20.312 173.612 20.312C175.368 20.312 177.119 20.312 178.875 20.312C179.221 20.312 179.275 20.4241 179.27 20.7283C179.27 23.6283 179.27 26.5246 179.27 29.4175C179.27 29.7857 179.168 29.8871 178.8 29.8818C177.099 29.8605 175.398 29.8605 173.697 29.8818C173.27 29.8818 173.212 29.7377 173.217 29.3481C173.238 27.9444 173.228 26.5033 173.228 25.0622Z" fill="white"/>
<path d="M35.4131 181.974C36.3044 187.669 33.102 193.684 33.102 193.684C33.102 193.684 26.3556 194.687 21.2905 191.933C17.042 189.665 15.4889 185.053 17.6238 182.283C20.7301 178.312 26.5798 184.472 26.5798 184.472C26.5798 184.472 22.753 176.887 27.5459 175.302C30.8924 174.187 34.7032 177.224 35.4131 181.974Z" fill="#EBEBEB"/>
<path d="M47.1871 167.953C44.6359 171.342 39.8163 172.756 39.8163 172.756C39.8163 172.756 35.824 169.719 34.6712 165.636C33.7104 162.231 35.317 159.045 37.8735 158.767C41.5616 158.361 41.3214 164.606 41.3214 164.606C41.3214 164.606 43.3496 158.698 46.6587 160.406C48.9645 161.575 49.3114 165.113 47.1871 167.953Z" fill="#EBEBEB"/>
<path d="M108.358 232.694C155.056 232.694 192.912 227.626 192.912 221.374C192.912 215.122 155.056 210.053 108.358 210.053C61.6603 210.053 23.8044 215.122 23.8044 221.374C23.8044 227.626 61.6603 232.694 108.358 232.694Z" fill="#D5D5D5"/>
<path d="M0 211.633L27.0922 211.505L54.179 211.457L108.358 211.366L162.537 211.457L189.624 211.505L216.711 211.633L189.624 211.761L162.537 211.809L108.358 211.9L54.179 211.809L27.0922 211.761L0 211.633Z" fill="#263238"/>
<path d="M153.464 13.4909H63.2631C62.0529 13.5014 60.8566 13.7502 59.7425 14.2232C58.6285 14.6962 57.6186 15.384 56.7705 16.2475C55.9225 17.1109 55.2528 18.133 54.7999 19.2554C54.347 20.3777 54.1197 21.5783 54.131 22.7885V208.527C54.1096 210.971 55.0596 213.323 56.7721 215.066C58.4846 216.81 60.8194 217.802 63.2631 217.824H153.464C155.909 217.803 158.245 216.812 159.96 215.068C161.674 213.325 162.626 210.972 162.606 208.527V22.7885C162.617 21.5776 162.389 20.3764 161.935 19.2537C161.481 18.131 160.811 17.1087 159.961 16.2453C159.112 15.3819 158.102 14.6942 156.987 14.2216C155.872 13.749 154.675 13.5007 153.464 13.4909ZM156.896 202.789C156.896 207.678 153.234 211.633 148.724 211.633H68.0026C63.4713 211.633 59.8152 207.678 59.8152 202.789V29.8284C59.8152 19.869 63.4713 19.3833 68.0026 19.3833H84.1693C85.1087 19.3833 85.8773 20.4508 85.8773 21.7744V22.3455C85.8773 25.4465 87.5745 25.4571 89.6614 25.4571H127.023C129.158 25.4571 130.807 25.4572 130.807 22.3455V21.7744C130.807 20.4508 131.565 19.3833 132.525 19.3833H148.697C153.207 19.3833 156.869 20.7069 156.869 29.8284L156.896 202.789Z" fill="#263238"/>
<path d="M113.455 21.5823H103.256C103.089 21.5823 102.928 21.5159 102.81 21.3978C102.692 21.2797 102.626 21.1195 102.626 20.9525C102.626 20.7855 102.692 20.6253 102.81 20.5072C102.928 20.389 103.089 20.3227 103.256 20.3227H113.455C113.622 20.3227 113.782 20.389 113.9 20.5072C114.019 20.6253 114.085 20.7855 114.085 20.9525C114.085 21.1195 114.019 21.2797 113.9 21.3978C113.782 21.5159 113.622 21.5823 113.455 21.5823Z" fill="white"/>
<path d="M156.896 29.8284V202.789C156.896 207.678 153.234 211.633 148.724 211.633H68.0026C63.4713 211.633 59.8152 207.678 59.8152 202.789V29.8284C59.8152 19.869 63.4713 19.3833 68.0026 19.3833H84.1693C85.1087 19.3833 85.8773 20.4508 85.8773 21.7744V22.3455C85.8773 25.4465 87.5746 25.4572 89.6614 25.4572H127.023C129.158 25.4572 130.807 25.4572 130.807 22.3455V21.7744C130.807 20.4508 131.565 19.3833 132.525 19.3833H148.697C153.234 19.4047 156.896 20.707 156.896 29.8284Z" fill="white"/>
<path d="M156.896 29.8284V42.734H59.7885V29.8284C59.7885 19.869 63.4713 19.4047 67.9973 19.4047H84.1693C85.1087 19.4047 85.8773 20.4721 85.8773 21.7958V22.3669C85.8773 25.4678 87.5745 25.4785 89.6561 25.4785H127.039C129.142 25.4785 130.828 25.4785 130.828 22.3669V21.7744C130.828 20.4508 131.586 19.3833 132.541 19.3833H148.708C153.234 19.4047 156.896 20.707 156.896 29.8284Z" fill="#476DD1"/>
<path d="M69.0114 36.436L66.1453 33.746L69.0114 31.056L69.4544 31.5311L67.0953 33.746L69.4544 35.961L69.0114 36.436Z" fill="white"/>
<path d="M148.089 36.6229H146.168V35.9504C146.167 35.9204 146.158 35.8911 146.142 35.8658C146.126 35.8404 146.104 35.8198 146.077 35.8063C146.002 35.7689 145.933 35.7262 145.863 35.6835C145.838 35.668 145.808 35.6598 145.778 35.6598C145.748 35.6598 145.718 35.668 145.693 35.6835L145.116 36.0144L144.155 34.3545L144.737 34.0183C144.763 34.0031 144.783 33.981 144.796 33.9545C144.81 33.928 144.815 33.8983 144.812 33.8688C144.809 33.828 144.809 33.7869 144.812 33.7461C144.809 33.7052 144.809 33.6642 144.812 33.6233C144.815 33.5939 144.81 33.5641 144.796 33.5376C144.783 33.5112 144.763 33.489 144.737 33.4739L144.155 33.1376L145.116 31.4777L145.693 31.8086C145.718 31.8242 145.748 31.8324 145.778 31.8324C145.808 31.8324 145.838 31.8242 145.863 31.8086C145.933 31.7659 146.002 31.7232 146.077 31.6859C146.104 31.6723 146.126 31.6518 146.142 31.6264C146.158 31.601 146.167 31.5717 146.168 31.5418V30.8693H148.089V31.5364C148.09 31.5664 148.098 31.5957 148.114 31.621C148.13 31.6464 148.153 31.667 148.18 31.6805L148.393 31.8033C148.419 31.8188 148.448 31.827 148.479 31.827C148.509 31.827 148.538 31.8188 148.564 31.8033L149.14 31.4724L150.096 33.1323L149.519 33.4685C149.493 33.4834 149.472 33.5054 149.458 33.5318C149.444 33.5582 149.437 33.5881 149.439 33.618C149.442 33.6588 149.442 33.6999 149.439 33.7407V33.8582C149.434 33.8885 149.439 33.9197 149.452 33.9474C149.466 33.9751 149.487 33.998 149.514 34.0129L150.09 34.3492L149.135 36.0091L148.553 35.6782C148.529 35.6625 148.5 35.6542 148.471 35.6542C148.441 35.6542 148.413 35.6625 148.388 35.6782L148.174 35.8009C148.148 35.8145 148.125 35.835 148.109 35.8604C148.093 35.8858 148.084 35.9151 148.084 35.945L148.089 36.6229ZM146.568 36.2226H147.689V35.9504C147.689 35.8469 147.717 35.7455 147.771 35.657C147.824 35.5685 147.901 35.4965 147.993 35.4487C148.056 35.4201 148.117 35.3862 148.174 35.3473C148.262 35.2899 148.364 35.2593 148.468 35.2593C148.572 35.2593 148.674 35.2899 148.761 35.3473L148.991 35.4807L149.551 34.5093L149.317 34.3759C149.223 34.3244 149.147 34.246 149.098 34.1508C149.05 34.0557 149.031 33.9481 149.044 33.8421V33.6393C149.032 33.5328 149.051 33.4248 149.101 33.3296C149.15 33.2344 149.227 33.1563 149.322 33.1056L149.551 32.9722L148.991 32.0008L148.761 32.1342C148.674 32.1916 148.572 32.2222 148.468 32.2222C148.364 32.2222 148.262 32.1916 148.174 32.1342C148.118 32.0964 148.059 32.0625 147.998 32.0328C147.905 31.9862 147.827 31.9146 147.772 31.8259C147.717 31.7373 147.689 31.6352 147.689 31.5311V31.2642H146.568V31.5311C146.568 31.6352 146.539 31.7373 146.484 31.8259C146.43 31.9146 146.351 31.9862 146.258 32.0328C146.197 32.0614 146.138 32.0953 146.082 32.1342C145.995 32.1916 145.893 32.2222 145.789 32.2222C145.684 32.2222 145.582 32.1916 145.495 32.1342L145.266 32.0008L144.732 32.9722L144.961 33.1056C145.056 33.1563 145.133 33.2344 145.182 33.3296C145.232 33.4248 145.252 33.5328 145.239 33.6393C145.232 33.7067 145.232 33.7747 145.239 33.8421C145.252 33.9487 145.232 34.0566 145.182 34.1518C145.133 34.247 145.056 34.3251 144.961 34.3759L144.732 34.5093L145.266 35.4807L145.495 35.3473C145.582 35.2899 145.684 35.2593 145.789 35.2593C145.893 35.2593 145.995 35.2899 146.082 35.3473C146.138 35.385 146.197 35.4189 146.258 35.4487C146.351 35.4953 146.43 35.5669 146.484 35.6555C146.539 35.7441 146.568 35.8462 146.568 35.9504V36.2226ZM147.128 35.1871C146.842 35.1882 146.561 35.1041 146.323 34.9456C146.084 34.7871 145.898 34.5612 145.788 34.2967C145.677 34.0322 145.648 33.7409 145.704 33.4599C145.76 33.1788 145.898 32.9206 146.1 32.718C146.303 32.5154 146.561 32.3775 146.842 32.3219C147.123 32.2662 147.414 32.2953 147.679 32.4055C147.943 32.5156 148.169 32.7018 148.328 32.9405C148.486 33.1792 148.57 33.4595 148.569 33.7461C148.568 34.1278 148.416 34.4936 148.146 34.7635C147.876 35.0335 147.51 35.1857 147.128 35.1871ZM147.128 32.7C146.916 32.6947 146.707 32.7527 146.528 32.8667C146.349 32.9808 146.208 33.1456 146.123 33.3401C146.038 33.5346 146.013 33.75 146.051 33.9588C146.09 34.1676 146.189 34.3603 146.337 34.5123C146.485 34.6642 146.676 34.7686 146.883 34.812C147.091 34.8554 147.307 34.8359 147.504 34.7559C147.7 34.676 147.869 34.5392 147.987 34.3631C148.106 34.1871 148.169 33.9797 148.169 33.7674C148.169 33.4889 148.06 33.2213 147.866 33.0219C147.671 32.8225 147.407 32.7069 147.128 32.7Z" fill="white"/>
<path d="M81.3779 23.2689L81.2231 23.4237C81.1911 23.4237 81.1644 23.4824 81.1324 23.5144C80.9364 23.3144 80.7021 23.1561 80.4435 23.0488C80.1849 22.9415 79.9073 22.8874 79.6273 22.8899C79.3471 22.8862 79.0692 22.9397 78.8104 23.047C78.5516 23.1544 78.3174 23.3134 78.1222 23.5144L78.0368 23.4237L77.882 23.2689L78.0795 23.0981C78.2195 22.9813 78.3737 22.8827 78.5385 22.8045C78.7288 22.7085 78.9319 22.6402 79.1416 22.6017C79.243 22.6017 79.3444 22.6017 79.4458 22.559H79.7127H79.9155C80.0979 22.583 80.277 22.6277 80.4492 22.6925C80.5804 22.7402 80.7071 22.7992 80.8282 22.8686C80.9548 22.9411 81.0745 23.0251 81.1858 23.1194L81.3512 23.2689H81.3779Z" fill="white"/>
<path d="M78.6132 24.0054C78.5332 23.92 78.4531 23.84 78.3677 23.7599C78.5324 23.5942 78.7282 23.4626 78.9439 23.3729C79.1597 23.2831 79.391 23.2369 79.6246 23.2369C79.8583 23.2369 80.0896 23.2831 80.3053 23.3729C80.521 23.4626 80.7169 23.5942 80.8816 23.7599L80.636 24.0054C80.3678 23.7372 80.004 23.5865 79.6246 23.5865C79.2453 23.5865 78.8815 23.7372 78.6132 24.0054Z" fill="white"/>
<path d="M80.3905 24.2509L80.145 24.4965C80.0763 24.4251 79.9931 24.3691 79.9011 24.3323C79.8091 24.2955 79.7103 24.2787 79.6113 24.283C79.5124 24.28 79.414 24.2974 79.3222 24.3342C79.2304 24.3709 79.1471 24.4261 79.0776 24.4965L78.832 24.2509C78.9319 24.1443 79.0526 24.0593 79.1866 24.0011C79.3207 23.943 79.4652 23.913 79.6113 23.913C79.7574 23.913 79.9019 23.943 80.036 24.0011C80.17 24.0593 80.2907 24.1443 80.3905 24.2509Z" fill="white"/>
<path d="M79.8461 24.742C79.8461 24.8 79.8231 24.8557 79.782 24.8967C79.741 24.9377 79.6853 24.9608 79.6273 24.9608C79.5953 24.9658 79.5627 24.9638 79.5315 24.9549C79.5004 24.9461 79.4716 24.9306 79.447 24.9096C79.4224 24.8885 79.4027 24.8624 79.3892 24.833C79.3756 24.8036 79.3686 24.7717 79.3686 24.7393C79.3686 24.7069 79.3756 24.675 79.3892 24.6456C79.4027 24.6162 79.4224 24.5901 79.447 24.569C79.4716 24.548 79.5004 24.5325 79.5315 24.5237C79.5627 24.5148 79.5953 24.5128 79.6273 24.5178C79.6565 24.5178 79.6854 24.5236 79.7123 24.535C79.7392 24.5463 79.7636 24.5629 79.7839 24.5838C79.8043 24.6047 79.8203 24.6294 79.831 24.6566C79.8417 24.6838 79.8468 24.7128 79.8461 24.742Z" fill="white"/>
<path d="M66.1399 23.7386C66.1399 23.6109 66.1778 23.486 66.2488 23.3798C66.3197 23.2736 66.4206 23.1908 66.5386 23.1419C66.6566 23.0931 66.7864 23.0803 66.9117 23.1052C67.037 23.1301 67.1521 23.1916 67.2424 23.2819C67.3327 23.3722 67.3942 23.4873 67.4191 23.6126C67.4441 23.7379 67.4313 23.8677 67.3824 23.9857C67.3335 24.1037 67.2507 24.2046 67.1445 24.2756C67.0383 24.3465 66.9135 24.3844 66.7857 24.3844C66.6144 24.3844 66.4502 24.3164 66.3291 24.1952C66.2079 24.0741 66.1399 23.9099 66.1399 23.7386Z" fill="white"/>
<path d="M68.1681 23.7386C68.1681 23.6109 68.206 23.486 68.2769 23.3798C68.3479 23.2736 68.4488 23.1908 68.5668 23.1419C68.6848 23.0931 68.8146 23.0803 68.9399 23.1052C69.0652 23.1301 69.1802 23.1916 69.2706 23.2819C69.3609 23.3722 69.4224 23.4873 69.4473 23.6126C69.4722 23.7379 69.4594 23.8677 69.4106 23.9857C69.3617 24.1037 69.2789 24.2046 69.1727 24.2756C69.0665 24.3465 68.9416 24.3844 68.8139 24.3844C68.7291 24.3844 68.6451 24.3677 68.5668 24.3352C68.4884 24.3028 68.4172 24.2552 68.3572 24.1952C68.2973 24.1353 68.2497 24.0641 68.2172 23.9857C68.1848 23.9074 68.1681 23.8234 68.1681 23.7386Z" fill="white"/>
<path d="M70.1963 23.7386C70.1963 23.6106 70.2343 23.4855 70.3055 23.3792C70.3767 23.2729 70.4779 23.1901 70.5962 23.1414C70.7145 23.0927 70.8446 23.0802 70.9701 23.1056C71.0955 23.1309 71.2105 23.193 71.3006 23.2838C71.3907 23.3747 71.4518 23.4903 71.4761 23.6159C71.5005 23.7415 71.4869 23.8715 71.4372 23.9894C71.3875 24.1073 71.3039 24.2078 71.197 24.2781C71.0901 24.3485 70.9647 24.3854 70.8368 24.3844C70.7522 24.3844 70.6685 24.3676 70.5904 24.3351C70.5124 24.3026 70.4415 24.2549 70.382 24.1949C70.3224 24.1349 70.2754 24.0636 70.2435 23.9853C70.2116 23.907 70.1956 23.8231 70.1963 23.7386Z" fill="white"/>
<path d="M72.2244 23.7386C72.2245 23.6106 72.2625 23.4855 72.3337 23.3792C72.4049 23.2729 72.506 23.1901 72.6244 23.1414C72.7427 23.0927 72.8728 23.0802 72.9982 23.1056C73.1236 23.1309 73.2387 23.193 73.3288 23.2838C73.4189 23.3747 73.48 23.4903 73.5043 23.6159C73.5286 23.7415 73.5151 23.8715 73.4654 23.9894C73.4157 24.1073 73.3321 24.2078 73.2252 24.2781C73.1183 24.3485 72.9929 24.3854 72.8649 24.3844C72.7804 24.3844 72.6966 24.3676 72.6186 24.3351C72.5405 24.3026 72.4697 24.2549 72.4101 24.1949C72.3506 24.1349 72.3035 24.0636 72.2717 23.9853C72.2398 23.907 72.2237 23.8231 72.2244 23.7386Z" fill="white"/>
<path d="M74.2473 23.7386C74.2473 23.6109 74.2852 23.486 74.3561 23.3798C74.4271 23.2736 74.528 23.1908 74.646 23.1419C74.764 23.0931 74.8938 23.0803 75.0191 23.1052C75.1444 23.1301 75.2595 23.1916 75.3498 23.2819C75.4401 23.3722 75.5016 23.4873 75.5265 23.6126C75.5514 23.7379 75.5386 23.8677 75.4898 23.9857C75.4409 24.1037 75.3581 24.2046 75.2519 24.2756C75.1457 24.3465 75.0208 24.3844 74.8931 24.3844C74.7218 24.3844 74.5576 24.3164 74.4365 24.1952C74.3153 24.0741 74.2473 23.9099 74.2473 23.7386Z" fill="white"/>
<path d="M149.615 25.1423H144.374V22.7191H149.615V25.1423ZM144.641 24.8754H149.349V22.986H144.652L144.641 24.8754Z" fill="white"/>
<path d="M148.19 23.1301H144.812V24.7313H148.19V23.1301Z" fill="white"/>
<path d="M150.08 23.2849H149.615V24.5819H150.08V23.2849Z" fill="white"/>
<path d="M74.5622 201.06H73.8256V204.449H72.4486V202.72H70.0041V204.449H68.6271V201.06H67.8852L71.2264 197.612L74.5622 201.06Z" fill="#EBEBEB"/>
<path d="M148.831 197.612H140.782V198.76H148.831V197.612Z" fill="#EBEBEB"/>
<path d="M148.831 200.457H140.782V201.604H148.831V200.457Z" fill="#EBEBEB"/>
<path d="M148.831 203.302H140.782V204.449H148.831V203.302Z" fill="#EBEBEB"/>
<path d="M74.4074 59.712C73.9248 60.0134 73.3967 60.2351 72.8436 60.3685C71.517 60.694 70.1164 60.5073 68.9213 59.8457C67.7262 59.1841 66.8245 58.0963 66.3961 56.7992C65.9677 55.5022 66.044 54.0913 66.61 52.848C67.1759 51.6048 68.1897 50.6206 69.4492 50.0919C70.7087 49.5631 72.1213 49.5287 73.405 49.9955C74.6888 50.4622 75.7494 51.3959 76.3752 52.6101C77.001 53.8243 77.146 55.2298 76.7812 56.5462C76.4165 57.8625 75.5689 58.993 74.4074 59.712Z" fill="#DBDBDB"/>
<path d="M73.2065 54.4868C73.2065 54.813 73.1098 55.1319 72.9286 55.4031C72.7473 55.6743 72.4898 55.8857 72.1884 56.0105C71.8871 56.1353 71.5555 56.168 71.2355 56.1043C70.9156 56.0407 70.6217 55.8836 70.3911 55.653C70.1604 55.4223 70.0034 55.1285 69.9397 54.8086C69.8761 54.4886 69.9088 54.157 70.0336 53.8557C70.1584 53.5543 70.3698 53.2967 70.641 53.1155C70.9122 52.9343 71.2311 52.8376 71.5573 52.8376C71.9947 52.8376 72.4142 53.0113 72.7235 53.3206C73.0327 53.6299 73.2065 54.0494 73.2065 54.4868Z" fill="white"/>
<path d="M74.4074 59.0342V59.712C73.9247 60.0134 73.3967 60.235 72.8436 60.3685C72.146 60.5395 71.4212 60.5695 70.7118 60.4568C70.0025 60.3441 69.3227 60.0909 68.7125 59.712V59.0342C68.6959 58.6499 68.7572 58.2662 68.8928 57.9062C69.0284 57.5462 69.2354 57.2174 69.5015 56.9396C69.7675 56.6618 70.0871 56.4407 70.4408 56.2896C70.7946 56.1386 71.1753 56.0607 71.5599 56.0607C71.9446 56.0607 72.3253 56.1386 72.6791 56.2896C73.0328 56.4407 73.3524 56.6618 73.6184 56.9396C73.8845 57.2174 74.0915 57.5462 74.2271 57.9062C74.3627 58.2662 74.424 58.6499 74.4074 59.0342Z" fill="white"/>
<path d="M118.2 49.9981H83.769V52.8376H118.2V49.9981Z" fill="#EBEBEB"/>
<path d="M113.823 54.7323H83.769V56.611H113.823V54.7323Z" fill="#EBEBEB"/>
<path d="M133.465 58.3563H83.769V60.2351H133.465V58.3563Z" fill="#EBEBEB"/>
<path d="M59.8098 132.983H156.879V65.0067L59.8098 65.0067L59.8098 132.983Z" fill="#EBEBEB"/>
<path d="M71.157 84.333C71.157 85.9238 71.6287 87.4789 72.5125 88.8016C73.3964 90.1243 74.6526 91.1553 76.1223 91.7641C77.592 92.3728 79.2092 92.5321 80.7695 92.2218C82.3297 91.9114 83.7629 91.1454 84.8878 90.0205C86.0127 88.8956 86.7787 87.4624 87.0891 85.9022C87.3994 84.3419 87.2402 82.7247 86.6314 81.255C86.0226 79.7852 84.9917 78.529 83.669 77.6452C82.3462 76.7614 80.7911 76.2897 79.2003 76.2897C77.0671 76.2897 75.0212 77.1371 73.5128 78.6455C72.0044 80.1539 71.157 82.1998 71.157 84.333Z" fill="#DBDBDB"/>
<path d="M102.914 118.198H156.896L129.905 81.6163L102.914 118.198Z" fill="#C7C7C7"/>
<path d="M81.7569 118.374H126.323L104.04 94.5486L81.7569 118.374Z" fill="#DBDBDB"/>
<path d="M156.885 118.342H59.8152V132.988H156.885V118.342Z" fill="#DBDBDB"/>
<path d="M74.4074 168.849C73.9233 169.147 73.3957 169.366 72.8436 169.5C71.8037 169.753 70.7124 169.691 69.7075 169.323C68.7027 168.955 67.8294 168.298 67.1981 167.434C66.5667 166.57 66.2057 165.538 66.1605 164.469C66.1153 163.4 66.3881 162.342 66.9443 161.428C67.5005 160.514 68.3153 159.785 69.2855 159.334C70.2558 158.882 71.338 158.729 72.3954 158.893C73.4529 159.056 74.4381 159.53 75.2265 160.253C76.015 160.976 76.5713 161.917 76.8252 162.957C77.0944 164.068 77.0056 165.237 76.5714 166.295C76.1372 167.353 75.3798 168.247 74.4074 168.849Z" fill="#DBDBDB"/>
<path d="M73.2065 163.603C73.2065 163.929 73.1098 164.248 72.9286 164.519C72.7473 164.79 72.4898 165.002 72.1884 165.126C71.8871 165.251 71.5555 165.284 71.2355 165.22C70.9156 165.157 70.6217 165 70.3911 164.769C70.1604 164.538 70.0034 164.244 69.9397 163.924C69.8761 163.605 69.9088 163.273 70.0336 162.972C70.1584 162.67 70.3698 162.413 70.641 162.231C70.9122 162.05 71.2311 161.953 71.5573 161.953C71.9947 161.953 72.4142 162.127 72.7235 162.437C73.0327 162.746 73.2065 163.165 73.2065 163.603Z" fill="white"/>
<path d="M74.4074 168.15V168.849C73.9233 169.147 73.3957 169.366 72.8436 169.5C72.1461 169.673 71.4211 169.703 70.7115 169.591C70.002 169.478 69.3222 169.224 68.7125 168.844V168.166C68.6959 167.782 68.7572 167.398 68.8928 167.038C69.0284 166.678 69.2354 166.349 69.5015 166.071C69.7675 165.794 70.0871 165.573 70.4408 165.422C70.7946 165.27 71.1753 165.193 71.5599 165.193C71.9446 165.193 72.3253 165.27 72.6791 165.422C73.0328 165.573 73.3524 165.794 73.6184 166.071C73.8845 166.349 74.0915 166.678 74.2271 167.038C74.3627 167.398 74.424 167.782 74.4074 168.166V168.15Z" fill="white"/>
<path d="M128.053 159.114H83.769V161.953H128.053V159.114Z" fill="#EBEBEB"/>
<path d="M140.296 163.848H83.769V165.727H140.296V163.848Z" fill="#EBEBEB"/>
<path d="M103.026 167.472H83.769V169.351H103.026V167.472Z" fill="#EBEBEB"/>
<path d="M156.885 174.128H59.8152V190.732H156.885V174.128Z" fill="#EBEBEB"/>
<path d="M86.7686 190.732H71.632C72.1926 189.174 73.2203 187.827 74.5748 186.875C75.9293 185.923 77.5446 185.412 79.2003 185.412C80.856 185.412 82.4714 185.923 83.8259 186.875C85.1804 187.827 86.2081 189.174 86.7686 190.732Z" fill="#DBDBDB"/>
<path d="M69.4544 143.401C71.2289 143.401 72.6674 141.962 72.6674 140.188C72.6674 138.413 71.2289 136.975 69.4544 136.975C67.6799 136.975 66.2413 138.413 66.2413 140.188C66.2413 141.962 67.6799 143.401 69.4544 143.401Z" fill="#EBEBEB"/>
<path fill-rule="evenodd" clip-rule="evenodd" d="M69.0167 141.469C68.9313 141.416 68.8566 141.335 68.7445 141.346C68.6324 141.357 68.7125 141.319 68.7125 141.293C68.7125 140.866 68.7125 140.439 68.7125 140.012C68.7097 139.997 68.7119 139.982 68.7186 139.968C68.7254 139.955 68.7363 139.944 68.7498 139.937C69.0754 139.772 69.2195 139.446 69.4223 139.169C69.5243 139.03 69.5976 138.873 69.6379 138.707C69.6783 138.54 69.6848 138.367 69.6572 138.197C69.6572 138.101 69.6892 138.058 69.7746 138.037C69.8187 138.023 69.8663 138.023 69.9104 138.037C69.9546 138.051 69.993 138.079 70.0201 138.117C70.114 138.292 70.1772 138.481 70.2069 138.677C70.2032 138.839 70.1835 139 70.1482 139.158C70.1482 139.275 70.1055 139.393 70.0842 139.51C70.1108 139.51 70.1429 139.51 70.1749 139.51H71.2424C71.3971 139.51 71.4719 139.553 71.4932 139.654C71.5052 139.717 71.496 139.782 71.4671 139.839C71.4381 139.896 71.3909 139.942 71.3331 139.969C71.3064 139.969 71.2584 139.969 71.253 140.012C71.2477 140.055 71.3011 140.049 71.3277 140.071C71.4558 140.156 71.4345 140.343 71.2797 140.449C71.2477 140.476 71.173 140.449 71.173 140.519C71.173 140.588 71.237 140.562 71.269 140.588C71.2924 140.619 71.3083 140.654 71.3155 140.691C71.3228 140.729 71.3211 140.768 71.3108 140.805C71.3004 140.841 71.2816 140.875 71.2558 140.903C71.23 140.932 71.198 140.954 71.1623 140.967C71.1401 140.974 71.1186 140.983 71.0982 140.994C71.0982 140.994 71.0662 140.994 71.0982 141.042C71.1343 141.059 71.1648 141.087 71.1861 141.121C71.2074 141.155 71.2187 141.194 71.2187 141.234C71.2187 141.274 71.2074 141.313 71.1861 141.347C71.1648 141.381 71.1343 141.409 71.0982 141.426L71.0555 141.458C70.9979 141.493 70.9304 141.508 70.8634 141.501H69.1608C69.1105 141.508 69.0594 141.496 69.0167 141.469Z" fill="white"/>
<path fill-rule="evenodd" clip-rule="evenodd" d="M67.4048 140.716V139.9C67.4048 139.841 67.4048 139.814 67.4796 139.814H68.4723C68.5364 139.814 68.547 139.814 68.547 139.894V141.538C68.547 141.608 68.547 141.629 68.4616 141.624H67.4956C67.4155 141.624 67.4048 141.597 67.4048 141.522C67.4102 141.255 67.4048 140.989 67.4048 140.716Z" fill="white"/>
<path d="M73.0838 140.951C72.9359 140.336 72.9733 139.692 73.1914 139.098C73.4095 138.504 73.7984 137.989 74.3092 137.616C74.8199 137.243 75.4296 137.03 76.0614 137.003C76.6932 136.976 77.3188 137.137 77.8593 137.465C78.3998 137.793 78.8311 138.274 79.0988 138.847C79.3664 139.42 79.4584 140.059 79.3632 140.684C79.2681 141.31 78.9899 141.892 78.5639 142.36C78.1379 142.827 77.583 143.158 76.9693 143.31C76.5592 143.412 76.133 143.432 75.7153 143.368C75.2976 143.305 74.8966 143.159 74.5354 142.94C74.1742 142.72 73.86 142.432 73.6108 142.091C73.3617 141.749 73.1826 141.362 73.0838 140.951Z" fill="#476DD1"/>
<path d="M77.8446 140.594C77.454 141.255 76.8866 141.795 76.2061 142.152C75.5234 141.796 74.954 141.256 74.5622 140.594C74.1619 139.777 74.4181 138.891 75.0532 138.699C75.9713 138.421 76.2061 140.017 76.2061 140.017C76.2061 140.017 76.4409 138.416 77.3536 138.699C77.9941 138.891 78.2503 139.777 77.8446 140.594Z" fill="white"/>
<path d="M129.91 139.772H84.3028V141.629H129.91V139.772Z" fill="#EBEBEB"/>
<path d="M59.8099 150.847L71.9469 150.75L84.0786 150.713L108.347 150.649L132.616 150.713L144.748 150.75L156.885 150.847L144.748 150.943L132.616 150.98L108.347 151.049L84.0786 150.98L71.9469 150.943L59.8099 150.847Z" fill="#EBEBEB"/>
<path d="M40.9129 117.29L8.16513 126.022L16.897 158.77L49.6448 150.038L40.9129 117.29Z" fill="#455A64"/>
<path d="M26.7826 142.307L22.3954 143.476C21.9363 141.762 21.504 140.145 21.0504 138.437L25.3576 137.29C25.2722 136.9 25.2188 136.596 25.1441 136.297C24.8185 134.963 24.4129 133.628 24.1834 132.299C23.687 129.332 24.9146 126.818 27.674 125.66C29.3926 124.934 31.2926 124.646 33.1554 124.149C33.577 125.713 33.956 127.138 34.383 128.734C33.7158 128.91 33.0486 129.076 32.3921 129.268C31.7962 129.409 31.2152 129.607 30.6575 129.86C30.2889 130.019 29.9888 130.304 29.8109 130.664C29.633 131.024 29.5887 131.435 29.6861 131.824C29.9743 133.127 30.3586 134.408 30.7536 135.806L35.76 134.466C35.9841 136.174 36.2136 137.754 36.3844 139.339C36.3844 139.494 36.0695 139.782 35.8507 139.873C34.6498 140.231 33.4382 140.535 32.1146 140.882C33.2675 145.221 34.4043 149.485 35.5625 153.819L30.2252 155.239C29.0883 150.937 27.9462 146.673 26.7826 142.307Z" fill="white"/>
<path d="M202.642 156.055L168.825 152.703L165.474 186.52L199.291 189.872L202.642 156.055Z" fill="#476DD1"/>
<path d="M197.192 165.647C197.512 162.263 195.591 159.861 192.261 159.498C187.635 158.989 182.991 158.529 178.33 158.116C175.042 157.828 172.699 159.792 172.326 163.064C172.064 165.38 171.861 167.702 171.632 170.002C171.402 172.302 171.167 174.539 170.959 176.807C170.644 180.271 172.561 182.678 175.96 183.068C180.55 183.569 185.144 184.025 189.741 184.434C193.104 184.728 195.479 182.732 195.826 179.39C196.306 174.811 196.762 170.23 197.192 165.647ZM193.6 179.225C193.365 181.36 192.095 182.427 189.955 182.235C185.358 181.808 180.764 181.353 176.174 180.869C174.039 180.645 172.971 179.348 173.174 177.218C173.612 172.592 174.071 167.958 174.551 163.314C174.77 161.179 176.078 160.112 178.202 160.288C182.799 160.712 187.393 161.165 191.983 161.649C194.118 161.879 195.185 163.208 194.977 165.327C194.774 167.643 194.529 169.959 194.299 172.265C194.07 174.571 193.856 176.898 193.6 179.214V179.225Z" fill="white"/>
<path d="M184.735 164.75C183.453 164.617 182.16 164.867 181.019 165.467C179.878 166.068 178.94 166.993 178.324 168.125C177.707 169.257 177.44 170.547 177.555 171.831C177.67 173.115 178.162 174.336 178.97 175.341C179.778 176.346 180.865 177.089 182.094 177.478C183.323 177.866 184.64 177.882 185.879 177.523C187.117 177.165 188.222 176.448 189.053 175.463C189.885 174.478 190.407 173.269 190.553 171.988C190.651 171.129 190.578 170.26 190.338 169.431C190.098 168.601 189.696 167.827 189.155 167.154C188.614 166.481 187.945 165.922 187.186 165.509C186.427 165.096 185.594 164.838 184.735 164.75ZM183.577 175.569C182.457 175.425 181.435 174.857 180.722 173.982C180.008 173.107 179.656 171.993 179.739 170.867C179.796 170.297 179.964 169.744 180.234 169.239C180.504 168.734 180.871 168.287 181.314 167.924C181.757 167.561 182.267 167.289 182.815 167.123C183.363 166.957 183.938 166.901 184.508 166.957C185.078 167.014 185.631 167.182 186.136 167.452C186.641 167.722 187.088 168.089 187.451 168.532C187.814 168.975 188.086 169.485 188.252 170.033C188.418 170.581 188.474 171.156 188.418 171.726C188.276 172.873 187.689 173.919 186.783 174.638C185.878 175.357 184.726 175.691 183.577 175.569Z" fill="white"/>
<path d="M193.184 165.428C193.166 165.624 193.106 165.813 193.008 165.983C192.91 166.153 192.776 166.3 192.616 166.414C192.455 166.527 192.272 166.605 192.079 166.641C191.886 166.677 191.688 166.671 191.497 166.624C191.289 166.614 191.086 166.558 190.903 166.458C190.719 166.359 190.561 166.219 190.44 166.049C190.32 165.879 190.239 165.684 190.205 165.478C190.171 165.273 190.184 165.062 190.243 164.862C190.403 163.96 191.038 163.597 191.951 163.635C192.858 163.88 193.349 164.462 193.184 165.428Z" fill="white"/>
<path d="M198.139 82.182L174.33 73.7086L165.856 97.5179L189.666 105.991L198.139 82.182Z" fill="#455A64"/>
<path d="M170.842 92.5257C172.711 93.2878 174.786 93.3764 176.713 92.7766C174.759 91.3355 174.124 90.3534 174.247 88.9978L175.742 89.4461C174.252 88.1705 173.649 86.6493 174.188 84.7066L175.56 85.6406C174.685 83.084 174.914 81.4241 176.371 80.3033C176.927 81.7896 177.783 83.1458 178.884 84.288C179.986 85.4301 181.311 86.3337 182.776 86.9429C182.851 86.692 182.899 86.4999 182.958 86.3131C183.148 85.5511 183.57 84.8668 184.166 84.3545C184.761 83.8422 185.501 83.527 186.283 83.4523C187.063 83.3345 187.861 83.4598 188.567 83.8112C189.274 84.1627 189.855 84.7231 190.232 85.4164C190.299 85.5628 190.407 85.6858 190.544 85.7696C190.681 85.8534 190.84 85.894 191.001 85.8861C191.673 85.8861 192.341 85.8861 193.072 85.8861C192.533 86.5431 191.798 87.0106 190.974 87.2204C190.977 87.2613 190.977 87.3023 190.974 87.3432L192.954 87.5193L193.002 87.6207C192.367 87.925 191.737 88.2559 191.086 88.5227C190.928 88.5733 190.785 88.6599 190.666 88.7757C190.547 88.8915 190.457 89.0333 190.403 89.1899C189.474 91.859 187.575 94.0812 185.083 95.4159C182.592 96.7505 179.69 97.1001 176.953 96.3953C174.691 95.8419 172.652 94.6111 171.109 92.8673C171.023 92.7445 170.933 92.6271 170.842 92.5257Z" fill="white"/>
<path d="M186.415 33.6255L165.58 40.5727L172.527 61.408L193.362 54.4609L186.415 33.6255Z" fill="#476DD1"/>
<path d="M174.274 57.8332C174.204 56.5256 174.13 55.314 174.092 54.0971C174.091 53.9174 174.054 53.7399 173.981 53.5755C173.908 53.4111 173.803 53.2635 173.671 53.1417C172.829 52.2588 172.197 51.1978 171.822 50.0372C171.446 48.8767 171.337 47.6465 171.502 46.438C171.667 45.2295 172.102 44.0736 172.775 43.0562C173.447 42.0387 174.341 41.1859 175.388 40.5609C176.435 39.9358 177.61 39.5547 178.825 39.4458C180.04 39.3369 181.264 39.5029 182.406 39.9316C183.548 40.3603 184.578 41.0407 185.421 41.9222C186.264 42.8037 186.898 43.8638 187.275 45.0237C187.834 46.9692 187.653 49.0529 186.766 50.8725C185.879 52.692 184.349 54.1184 182.472 54.8763C181.18 55.3746 179.787 55.5576 178.41 55.4101C178.146 55.3941 177.884 55.4593 177.658 55.5969C176.542 56.3281 175.459 57.0433 174.274 57.8332ZM175.539 55.3941C176.233 54.9457 176.814 54.5454 177.423 54.1878C177.64 54.0704 177.887 54.022 178.133 54.0491C179.259 54.2421 180.415 54.1653 181.506 53.8249C185.498 52.5706 187.462 47.8204 185.418 44.2177C184.831 43.0357 183.89 42.0666 182.725 41.4456C181.561 40.8246 180.231 40.5827 178.923 40.7538C177.571 40.8248 176.276 41.3199 175.222 42.1688C174.168 43.0178 173.409 44.1773 173.052 45.4827C172.176 48.2207 172.923 50.6012 175.037 52.5599C175.23 52.7544 175.352 53.0082 175.384 53.2805C175.485 53.9476 175.496 54.6308 175.539 55.3727V55.3941Z" fill="white"/>
<path d="M175.074 45.4667C175.363 44.586 176.115 44.4899 176.74 45.1464C176.985 45.4026 177.055 45.4934 177.311 45.7976C177.491 45.9536 177.61 46.1692 177.645 46.4051C177.68 46.6411 177.63 46.8819 177.503 47.0839C177.305 47.4201 177.407 47.6176 177.69 47.8471C178.552 48.5247 179.592 48.9397 180.684 49.0427C180.753 49.061 180.825 49.0652 180.896 49.0551C180.966 49.0451 181.034 49.0209 181.096 48.9841C181.157 48.9472 181.21 48.8985 181.252 48.8407C181.294 48.7829 181.324 48.7173 181.34 48.6477C181.746 47.6176 181.762 47.6229 182.867 47.751L183.246 47.7991C183.423 47.7948 183.598 47.8405 183.75 47.9309C183.903 48.0213 184.027 48.1528 184.108 48.3104C184.19 48.4679 184.225 48.6452 184.21 48.8219C184.195 48.9986 184.131 49.1676 184.025 49.3095C183.839 49.6771 183.556 49.987 183.208 50.2061C182.859 50.4252 182.457 50.5452 182.045 50.5531C179.903 50.6764 177.797 49.9604 176.174 48.557C175.63 48.1779 175.221 47.6359 175.005 47.0092C174.88 46.4989 174.904 45.9636 175.074 45.4667Z" fill="white"/>
<path d="M102.167 130.341C102.167 130.341 98.3933 142.296 93.6271 157.86C88.3324 175.158 81.8103 196.902 77.8927 211.628H113.546C114.144 209.258 114.795 206.696 115.483 203.974L118.494 192.232C121.344 181.136 124.482 169.004 127.22 158.452C131.324 142.638 134.527 130.357 134.527 130.357L102.167 130.341Z" fill="#455A64"/>
<path d="M127.615 139.019C126.846 141.757 125.88 144.447 125.032 147.153C124.183 149.859 123.308 152.699 122.454 155.474C120.76 160.971 119.081 166.471 117.415 171.972C114.074 182.97 110.744 193.975 107.424 204.988C106.757 207.203 106.058 209.413 105.369 211.628H106.437C107.714 207.386 108.991 203.141 110.269 198.893C113.621 187.717 116.96 176.535 120.287 165.348C121.952 159.73 123.609 154.106 125.256 148.477C126.083 145.632 126.857 142.782 127.684 139.937C128.106 138.517 127.925 137.893 127.615 139.019Z" fill="#263238"/>
<path d="M105.844 130.341C108.091 147.724 112.372 180.324 115.494 203.995C122.801 175.339 134.538 130.341 134.538 130.341H105.844Z" fill="#263238"/>
<path d="M118.499 192.216C118.675 198.76 118.851 205.607 118.99 211.628H151.75C151.083 196.747 149.936 175.745 148.975 158.815C148.068 142.734 147.32 130.341 147.32 130.341H103.213C103.213 130.341 103.96 145.819 107.483 158.095C107.766 159.109 108.075 160.107 108.411 161.062C111.661 162.377 114.783 163.985 117.741 165.866C117.741 165.866 118.136 178.318 118.499 192.216Z" fill="#455A64"/>
<path d="M146.578 211.628H147.112C146.895 207.685 146.696 203.745 146.514 199.806C145.564 178.51 144.817 157.198 144.113 135.897C144.113 135.726 143.846 135.71 143.851 135.897C144.209 147.943 144.524 159.995 144.919 172.041C145.378 185.213 145.931 198.409 146.578 211.628Z" fill="#263238"/>
<path d="M106.842 160.139C110.641 161.726 114.295 163.641 117.762 165.86C117.787 165.879 117.804 165.905 117.811 165.935C117.818 165.964 117.814 165.996 117.799 166.023C117.785 166.05 117.762 166.071 117.734 166.082C117.705 166.093 117.674 166.094 117.645 166.084C113.962 164.291 110.199 162.567 106.618 160.582C106.569 160.547 106.534 160.496 106.519 160.437C106.504 160.379 106.511 160.317 106.539 160.263C106.566 160.209 106.611 160.167 106.667 160.144C106.723 160.122 106.785 160.12 106.842 160.139Z" fill="#263238"/>
<path d="M104.558 143.006C104.862 144.645 105.257 146.267 105.625 147.895C105.956 149.421 106.196 150.98 106.602 152.485C106.928 153.948 107.67 155.286 108.737 156.339C109.335 156.872 109.997 157.406 110.637 157.897C110.979 158.169 111.352 158.431 111.705 158.714C111.656 158.5 111.619 158.276 111.582 158.057C111.47 157.433 111.368 156.814 111.262 156.194C111.032 154.812 110.808 153.43 110.6 152.047C110.183 149.331 109.799 146.587 109.233 143.897C109.233 143.877 109.24 143.857 109.253 143.841C109.265 143.826 109.282 143.814 109.302 143.809C109.322 143.804 109.342 143.806 109.361 143.814C109.379 143.823 109.395 143.837 109.404 143.855C110.082 146.523 110.829 149.16 111.416 151.861C111.705 153.179 112.74 159.69 112.783 160.149C112.825 160.608 112.868 161.099 112.889 161.58C112.951 162.065 112.951 162.557 112.889 163.042C112.863 163.16 112.719 163.138 112.665 163.042C112.469 162.59 112.329 162.115 112.249 161.628C112.132 161.163 112.025 160.694 111.945 160.219C111.913 160.048 111.891 159.877 111.865 159.685C111.224 159.295 110.626 158.783 110.029 158.345C109.431 157.908 108.726 157.422 108.113 156.91C106.985 155.955 106.17 154.683 105.775 153.259C105.382 151.724 105.127 150.158 105.012 148.578C104.803 146.731 104.654 144.869 104.392 143.027C104.371 142.942 104.537 142.894 104.558 143.006Z" fill="#263238"/>
<path d="M110.397 87.3165C108.209 104.759 104.387 134.013 98.2011 136.377C97.1337 136.788 92.5756 137.69 89.464 134.189C84.2174 128.286 75.144 108.367 72.5981 101.957C71.4719 99.1173 89.9924 89.8517 91.5775 92.7072C93.7979 96.7048 96.1303 102.725 96.5679 102.523C97.3098 102.186 98.5694 94.7621 103.506 84.333C109.671 71.374 111.214 80.8317 110.397 87.3165Z" fill="#AD6359"/>
<path d="M67.2287 95.0716C69.0541 98.9892 75.9179 105.538 78.1809 106.483C80.4439 107.427 91.9672 96.1338 91.6736 93.6306C91.3801 91.1274 84.2014 78.4246 80.2678 76.4658C76.3342 74.507 65.3447 91.0153 67.2287 95.0716Z" fill="#AD6359"/>
<path d="M90.8357 91.2554C90.8357 91.2554 90.4567 85.6459 91.7857 80.8797C92.9065 76.8714 95.0254 71.043 92.8905 70.3599C88.5139 68.9561 83.2407 83.4896 83.2407 83.4896C83.2407 83.4896 81.9384 90.2734 86.1548 92.0293C86.9306 92.3443 87.7783 92.4387 88.6043 92.3021C89.4304 92.1655 90.2026 91.8033 90.8357 91.2554Z" fill="#AD6359"/>
<path d="M79.1043 95.8883L72.6088 94.7461L75.9232 75.9321L84.1427 77.3785L79.1043 95.8883Z" fill="#476DD1"/>
<path d="M84.1427 77.3785L82.2213 84.4397L79.1043 95.8936L72.6034 94.7461L75.9232 75.9321L84.1427 77.3785Z" fill="#476DD1"/>
<path opacity="0.1" d="M84.1427 77.3785L82.2212 84.4397L74.6583 83.1054L75.9232 75.9321L84.1427 77.3785Z" fill="black"/>
<path d="M85.7793 72.5314L75.5507 70.7278L74.1808 78.4965L84.4094 80.3001L85.7793 72.5314Z" fill="#476DD1"/>
<path d="M93.1414 70.8882L85.0554 70.2798L87.2703 57.7051L95.0735 59.9041L93.1414 70.8882Z" fill="#476DD1"/>
<path d="M83.6196 54.4974L80.3532 73.0552L66.7377 72.3027L33.7265 78.2431L41.583 33.6766L70.5699 50.5531L83.6196 54.4974Z" fill="#476DD1"/>
<path d="M44.1282 57.1127C46.3088 44.7462 44.8548 34.1531 40.8807 33.4523C36.9066 32.7516 31.9173 42.2086 29.7367 54.575C27.5562 66.9415 29.0101 77.5346 32.9843 78.2354C36.9584 78.9361 41.9477 69.4792 44.1282 57.1127Z" fill="#476DD1"/>
<path opacity="0.2" d="M42.5225 56.432C44.4584 45.4532 43.3897 36.0878 40.1355 35.514C36.8813 34.9402 32.6739 43.3752 30.7381 54.3541C28.8022 65.333 29.8709 74.6983 33.1251 75.2721C36.3793 75.8459 40.5866 67.4109 42.5225 56.432Z" fill="black"/>
<path d="M41.5616 56.2321C41.3001 57.6945 41.0279 59.1089 40.6703 60.4645C39.9247 60.8787 39.077 61.0731 38.2254 61.0254C37.3738 60.9777 36.5532 60.6898 35.8585 60.195C35.1637 59.7003 34.6234 59.0188 34.2999 58.2296C33.9764 57.4404 33.8831 56.5757 34.0307 55.7357L34.399 53.6328C34.5449 52.795 34.9248 52.0156 35.4947 51.3844C36.0646 50.7532 36.8013 50.296 37.6199 50.0655C38.4385 49.8351 39.3055 49.8408 40.121 50.0819C40.9365 50.3231 41.6672 50.7899 42.2288 51.4285C42.074 52.9977 41.8498 54.6309 41.5616 56.2321Z" fill="#476DD1"/>
<path d="M87.3611 75.3502L71.7227 74.176L76.0086 49.8593L91.1078 54.1024L87.3611 75.3502Z" fill="#476DD1"/>
<path opacity="0.2" d="M87.3611 75.3502L71.7227 74.176L76.0086 49.8593L91.1078 54.1024L87.3611 75.3502Z" fill="black"/>
<path opacity="0.2" d="M43.1308 37.0978C43.9519 38.5998 44.4944 40.2381 44.732 41.9334C45.0014 43.6208 45.1352 45.3271 45.1323 47.0358C45.1323 47.8898 45.1056 48.7438 45.0789 49.5924C45.0523 50.441 44.9669 51.295 44.8761 52.1436C44.7854 52.9923 44.6946 53.8409 44.5666 54.6842C44.4385 55.5275 44.3157 56.3708 44.1663 57.2088C43.58 60.5729 42.6867 63.8763 41.4976 67.0774C40.8955 68.6773 40.1525 70.2205 39.2773 71.6889C38.4275 73.1769 37.2725 74.4684 35.8881 75.4784C37.2114 74.4086 38.3013 73.079 39.0905 71.5715C39.9174 70.0949 40.6122 68.5482 41.1667 66.9493C42.2851 63.7515 43.1297 60.4643 43.6912 57.1234C44.3263 53.7963 44.6834 50.4221 44.7587 47.0358C44.8051 45.3432 44.7177 43.6496 44.4972 41.9707C44.3266 40.2797 43.8643 38.631 43.1308 37.0978Z" fill="black"/>
<path d="M26.8734 33.2282C27.7967 33.9594 28.688 34.7387 29.542 35.5179C30.396 36.2972 31.282 37.1191 32.1359 37.909C32.9899 38.6989 33.8279 39.5422 34.6498 40.3909L35.8721 41.6612C36.267 42.0988 36.678 42.5258 37.0623 42.9741C36.5926 42.6112 36.1496 42.2269 35.6906 41.8533L34.3616 40.6844C33.4809 39.9105 32.6216 39.0832 31.7677 38.2933C30.9137 37.5034 30.0757 36.6601 29.2591 35.8115C28.4425 34.9628 27.6473 34.1195 26.8734 33.2282Z" fill="#263238"/>
<path d="M33.4382 67.6646C32.152 68.0008 30.8496 68.2783 29.5527 68.5452C28.2557 68.8121 26.9481 69.0789 25.6404 69.2871C24.3328 69.4953 23.0252 69.7301 21.7068 69.9116L19.732 70.1784C19.0755 70.2478 18.4137 70.3332 17.7519 70.3866C18.3924 70.2158 19.0435 70.077 19.6893 69.9169L21.6375 69.5059C22.9344 69.2284 24.2421 68.9722 25.5497 68.764C26.8573 68.5559 28.165 68.321 29.4833 68.1449C30.8016 67.9688 32.1146 67.782 33.4382 67.6646Z" fill="#263238"/>
<path d="M8.99338 63.0371C10.9415 62.8876 12.8896 62.7916 14.8644 62.7062C16.8392 62.6208 18.7607 62.5621 20.7088 62.514C22.6569 62.466 24.6103 62.4393 26.5798 62.4446H29.5047C30.4814 62.4446 31.4581 62.4446 32.4348 62.514C31.4581 62.5941 30.4867 62.6421 29.51 62.7062L26.5851 62.8503C24.637 62.941 22.6889 62.989 20.7141 63.0424C18.7393 63.0958 16.8125 63.1118 14.8431 63.1065C12.8736 63.1011 10.9468 63.1065 8.99338 63.0371Z" fill="#263238"/>
<path d="M15.9799 33.6179C17.6451 34.6853 19.2783 35.8062 20.9062 36.9323C22.5341 38.0585 24.146 39.206 25.7525 40.3589C27.359 41.5117 28.9549 42.6859 30.5241 43.8868L32.8831 45.6855C33.6571 46.3046 34.4416 46.9024 35.2102 47.5322C34.3723 46.9985 33.5556 46.4648 32.7284 45.899L30.2839 44.2178C28.6507 43.0969 27.0441 41.9441 25.4376 40.7912C23.8311 39.6383 22.2352 38.4588 20.666 37.2632C19.0969 36.0677 17.517 34.8828 15.9799 33.6179Z" fill="#263238"/>
<path d="M33.1767 54.9938C30.9137 54.6842 28.656 54.316 26.4037 53.9263C24.1513 53.5367 21.9043 53.1257 19.6573 52.7308C17.4103 52.3358 15.1686 51.8715 12.9323 51.4071L9.57513 50.7079C8.46497 50.4517 7.34414 50.2169 6.23398 49.9447C7.36549 50.0995 8.497 50.281 9.62317 50.4464L13.007 50.9801C15.2594 51.3538 17.5064 51.7807 19.7534 52.1757C22.0004 52.5707 24.2421 53.035 26.4784 53.4994C28.7147 53.9637 30.9671 54.4654 33.1767 54.9938Z" fill="#263238"/>
<path d="M85.7439 80.6982C85.493 82.9719 82.9524 81.3814 82.9524 81.3814C82.9524 81.3814 86.0588 84.5518 84.8952 86.8041C83.7691 88.9657 80.7695 86.9322 80.5507 86.8041C80.7161 86.9749 83.4915 89.9638 82.0931 92.1041C80.6948 94.2443 77.9727 91.7678 77.8233 91.6024C77.9247 91.8105 79.2484 94.5859 77.8233 95.9683C75.3575 98.3434 71.7868 91.3355 69.1181 90.5936C69.1181 90.5936 67.3408 94.9702 67.2608 95.0876C67.2608 95.0876 63.7275 88.496 64.9337 84.9467C65.1002 84.4286 65.4385 83.9828 65.8927 83.6829C66.3468 83.3831 66.8897 83.2471 67.4316 83.2975C67.4316 83.2975 66.0599 81.3013 67.106 79.5614C67.6397 78.6807 69.5398 78.7608 69.5398 78.7608C69.5398 78.7608 68.5044 77.1116 69.5398 75.6438C70.3564 74.4696 72.1231 74.7311 72.1231 74.7311C72.1231 74.7311 71.8615 72.6923 73.0891 71.7582C75.5176 69.8902 86.2669 75.8253 85.7439 80.6982Z" fill="#AD6359"/>
<path d="M72.3739 74.7418C72.3682 74.7393 72.3633 74.7352 72.3599 74.73C72.3565 74.7248 72.3547 74.7187 72.3547 74.7125C72.3547 74.7062 72.3565 74.7001 72.3599 74.6949C72.3633 74.6897 72.3682 74.6856 72.3739 74.6831C76.3876 75.7506 80.4599 78.1951 83.0859 81.4508C83.1713 81.5576 83.0325 81.7444 82.9151 81.643C79.7526 78.8462 76.2021 76.5217 72.3739 74.7418Z" fill="#263238"/>
<path d="M69.4651 78.7181C69.4224 78.7181 69.4651 78.6274 69.5024 78.6434C73.6282 79.7856 78.1382 82.6463 80.7108 86.7507C80.7962 86.8948 80.7375 87.1083 80.62 86.9536C78.7146 84.3543 73.0891 80.3353 69.4651 78.7181Z" fill="#263238"/>
<path d="M77.882 91.9332C75.2507 88.0904 71.6534 85.4751 67.5757 83.3242C67.5223 83.3242 67.5757 83.2228 67.6184 83.2388C69.8974 83.7725 72.3579 85.3737 74.1619 86.8308C75.8637 88.1345 77.1927 89.8629 78.0154 91.8425C78.0475 91.9226 77.9354 91.992 77.882 91.9332Z" fill="#263238"/>
<path d="M83.0325 81.3761C83.1339 81.5042 82.835 81.5149 82.9311 81.643C83.3528 82.1767 85.5731 85.742 84.6017 86.8735C83.8224 87.7809 82.0611 87.3592 81.4527 86.9322L79.9102 85.8648L80.9776 87.4073C81.454 88.0889 81.8147 88.8445 82.0451 89.6436C82.1773 90.0068 82.2309 90.394 82.2023 90.7795C82.1738 91.165 82.0638 91.5401 81.8797 91.8799C81.7057 92.1946 81.4289 92.44 81.0957 92.5751C80.7624 92.7101 80.3929 92.7266 80.049 92.6218C79.285 92.3692 78.5968 91.9287 78.0475 91.3409L76.4836 89.7397L77.439 91.7358C77.7075 92.2905 77.9048 92.8769 78.0261 93.4811C78.1618 94.049 78.1303 94.644 77.9354 95.1944C77.8323 95.4369 77.664 95.6462 77.4492 95.7988C77.2344 95.9514 76.9814 96.0415 76.7185 96.059C76.1276 96.0094 75.5631 95.7928 75.0906 95.4346C74.0535 94.67 73.0773 93.826 72.1711 92.91C71.7014 92.4617 71.2264 92.0134 70.73 91.5864C70.2549 91.1319 69.6893 90.7827 69.0701 90.5616C69.6525 90.8447 70.1745 91.2381 70.6073 91.7198C71.0663 92.1788 71.4986 92.6592 71.9362 93.1395C72.7963 94.138 73.7488 95.053 74.781 95.8722C75.3325 96.3291 76.0064 96.6131 76.7185 96.6888C77.1089 96.6862 77.4902 96.5704 77.8161 96.3553C78.142 96.1402 78.3985 95.8352 78.5545 95.4773C78.8278 94.7999 78.891 94.0561 78.736 93.3423C78.615 92.6671 78.4069 92.0105 78.1168 91.3889L77.5084 91.8052C78.1452 92.5144 78.9567 93.0444 79.8622 93.3423C80.369 93.4926 80.9122 93.4624 81.3993 93.2569C81.8687 93.0386 82.2626 92.6856 82.5308 92.2429C82.7639 91.812 82.903 91.3367 82.9389 90.8481C82.9748 90.3596 82.9066 89.869 82.739 89.4087C82.4662 88.5329 82.0495 87.7086 81.506 86.9696L81.0364 87.4393C81.837 87.973 83.7477 88.6402 85.1354 87.3859C86.7206 85.5178 83.641 81.9792 83.0325 81.3761Z" fill="#263238"/>
<path d="M82.9525 81.3814C83.3938 81.549 83.8582 81.648 84.3295 81.6749C84.518 81.6906 84.7073 81.6558 84.878 81.5742C85.0487 81.4926 85.1946 81.3671 85.3009 81.2106C85.4821 80.8342 85.5507 80.4135 85.4984 79.999C85.4663 79.54 85.4076 79.0597 85.3276 78.5633C85.6448 78.964 85.8723 79.4281 85.9947 79.9243C86.0772 80.1925 86.1059 80.4743 86.0794 80.7537C86.0528 81.033 85.9714 81.3043 85.8399 81.5522C85.6691 81.8123 85.4207 82.0121 85.1301 82.1233C84.8534 82.2174 84.5562 82.234 84.2708 82.1713C83.7585 82.0548 83.2968 81.7781 82.9525 81.3814Z" fill="#263238"/>
<path d="M71.157 108.244L91.4014 91.992C91.4014 91.992 96.3064 102.133 96.5946 102.09C96.8828 102.047 100.096 88.5921 105.423 80.2072C110.749 71.8223 112.03 80.9224 110.899 87.8395C109.767 94.7567 104.44 133.095 99.6529 136.607C94.8653 140.118 90.366 135.721 88.4445 133.858C85.7599 131.259 71.157 108.244 71.157 108.244Z" fill="#476DD1"/>
<path d="M75.0532 110.075C75.6884 109.424 82.0504 104.46 83.4541 103.414L87.6813 100.275C89.133 99.208 90.5688 98.0285 92.1059 97.0731C92.1126 97.0678 92.1202 97.064 92.1284 97.0616C92.1365 97.0593 92.1451 97.0587 92.1535 97.0596C92.1619 97.0606 92.1701 97.0633 92.1775 97.0674C92.1849 97.0716 92.1914 97.0771 92.1967 97.0838C92.2019 97.0904 92.2058 97.0981 92.2081 97.1062C92.2104 97.1144 92.2111 97.1229 92.2101 97.1313C92.2091 97.1398 92.2065 97.1479 92.2023 97.1553C92.1982 97.1627 92.1926 97.1693 92.186 97.1745C90.8517 98.4021 89.3465 99.4696 87.9161 100.585C86.4857 101.701 85.1034 102.795 83.6943 103.889C82.2853 104.983 75.8805 109.76 75.1119 110.182C75.0479 110.214 75.0105 110.139 75.0532 110.075Z" fill="#263238"/>
<path d="M96.616 102.063C97.1497 103.259 97.6834 104.487 98.1318 105.714C98.5801 106.942 99.0284 108.196 99.4287 109.45C99.829 110.705 100.192 111.975 100.496 113.261C100.815 114.543 101.059 115.842 101.227 117.152C101.03 116.517 100.87 115.882 100.694 115.257C100.518 114.633 100.32 113.998 100.123 113.368L98.9484 109.632L97.7742 105.896L97.1497 103.964C96.9682 103.328 96.7707 102.699 96.616 102.063Z" fill="#263238"/>
<path d="M96.6907 143.823C97.566 144.693 151.393 141.842 151.665 141.496C152.375 140.545 133.123 83.2601 120.506 74.1974C117.794 72.2493 110.504 74.8592 108.63 76.738C107.456 77.9175 104.894 85.363 103.229 91.517C99.8664 103.846 95.9275 143.059 96.6907 143.823Z" fill="white"/>
<path d="M109.724 74.3201C107.589 75.9213 105.956 84.0927 110.835 85.1976C115.713 86.3024 120.239 78.6006 120.906 76.1241C121.573 73.6476 114.341 70.8936 109.724 74.3201Z" fill="#476DD1"/>
<path d="M111.187 84.0767C114.213 84.4664 118.808 79.4226 120.426 75.5371C120.538 75.2702 119.892 72.6709 119.219 69.4685C118.83 67.5258 118.446 65.3535 118.232 63.3413L105.956 67.7232C105.956 67.7232 107.638 71.8063 107.984 75.3129C108.011 75.5898 108.011 75.8686 107.984 76.1455C107.984 76.1829 107.984 76.2309 107.984 76.2843C107.883 77.8908 108.262 83.7031 111.187 84.0767Z" fill="#AD6359"/>
<path d="M117.65 63.5655C117.522 66.1167 116.556 75.3076 109.276 76.2363C108.844 76.2905 108.409 76.312 107.974 76.3003C107.965 76.2544 107.965 76.2074 107.974 76.1615C107.995 75.8844 107.995 75.606 107.974 75.3289C107.621 71.8276 105.94 67.7446 105.94 67.7446L117.65 63.5655Z" fill="#263238"/>
<path d="M118.44 48.3008C120.228 52.6454 119.097 65.7859 116.193 68.9722C111.977 73.589 104.451 74.7045 100.389 69.506C96.4398 64.4622 98.2172 47.3561 101.521 44.4206C106.383 40.0387 115.793 41.8854 118.44 48.3008Z" fill="#AD6359"/>
<path d="M106.832 57.3795C106.832 57.3475 106.901 57.4276 106.896 57.4649C106.794 58.3509 106.832 59.3757 107.605 59.7333C107.605 59.7333 107.605 59.792 107.605 59.7867C106.629 59.5678 106.597 58.2015 106.832 57.3795Z" fill="#263238"/>
<path d="M107.702 56.5203C109.132 56.5203 109.015 59.3917 107.702 59.3864C106.389 59.3811 106.501 56.5149 107.702 56.5203Z" fill="#263238"/>
<path d="M101.863 57.1981C101.863 57.1661 101.793 57.2408 101.793 57.2728C101.793 58.1642 101.622 59.1783 100.806 59.4398V59.4932C101.798 59.3971 101.996 58.0414 101.863 57.1981Z" fill="#263238"/>
<path d="M101.11 56.232C99.6849 56.0665 99.4554 58.9007 100.774 59.0821C102.092 59.2636 102.3 56.3814 101.11 56.232Z" fill="#263238"/>
<path d="M108.892 55.2553C108.519 55.1307 108.154 54.9846 107.798 54.8176C107.392 54.7178 107.03 54.4871 106.768 54.1611C106.705 54.0422 106.684 53.906 106.707 53.7737C106.73 53.6415 106.797 53.5206 106.896 53.4299C107.118 53.2808 107.376 53.1938 107.644 53.1778C107.911 53.1619 108.178 53.2176 108.417 53.3392C108.938 53.5114 109.378 53.8708 109.65 54.348C109.705 54.4602 109.727 54.5863 109.712 54.7108C109.698 54.8352 109.647 54.9527 109.567 55.0489C109.486 55.1451 109.38 55.2158 109.26 55.2525C109.14 55.2891 109.012 55.2901 108.892 55.2553Z" fill="#263238"/>
<path d="M100.064 54.7482C100.459 54.7002 100.822 54.5881 101.211 54.5027C101.63 54.4733 102.027 54.3041 102.338 54.0224C102.419 53.9168 102.463 53.7873 102.463 53.6541C102.463 53.5208 102.419 53.3913 102.338 53.2858C102.143 53.1003 101.902 52.9702 101.64 52.9092C101.378 52.8482 101.105 52.8584 100.848 52.9389C100.307 53.0209 99.8143 53.3003 99.4661 53.7235C99.3936 53.8255 99.3521 53.9463 99.3465 54.0714C99.3409 54.1965 99.3714 54.3205 99.4345 54.4286C99.4976 54.5368 99.5905 54.6244 99.7021 54.6811C99.8138 54.7378 99.9393 54.7611 100.064 54.7482Z" fill="#263238"/>
<path d="M107.968 65.6951C107.75 65.8926 107.525 66.1701 107.2 66.1808C106.87 66.1632 106.547 66.0739 106.255 65.9193C106.249 65.9179 106.244 65.9181 106.238 65.9199C106.232 65.9217 106.227 65.9249 106.224 65.9293C106.22 65.9337 106.217 65.9391 106.216 65.9448C106.215 65.9506 106.216 65.9565 106.218 65.962C106.335 66.1442 106.5 66.2904 106.695 66.3846C106.89 66.4788 107.107 66.5173 107.323 66.4957C107.506 66.4573 107.673 66.3651 107.803 66.231C107.933 66.097 108.021 65.9271 108.054 65.7432C108.07 65.6844 108 65.6631 107.968 65.6951Z" fill="#263238"/>
<path d="M107.146 62.9944C106.908 63.3368 106.601 63.6258 106.244 63.8427C105.887 64.0596 105.489 64.1996 105.076 64.254C104.722 64.3051 104.362 64.3051 104.008 64.254C103.938 64.2493 103.868 64.2386 103.8 64.2219L103.608 64.1846C103.56 64.1739 103.518 64.1476 103.487 64.1099C103.456 64.0722 103.438 64.0252 103.437 63.9764C103.434 63.9462 103.434 63.9159 103.437 63.8857V63.8056C103.437 63.1225 103.56 62.087 103.56 62.087C103.304 62.1991 102.007 62.7222 102.039 62.3646C102.343 59.413 102.674 56.1359 103.597 53.2911C103.624 53.1951 103.773 53.2218 103.757 53.2911C103.581 56.1413 102.903 58.9327 102.69 61.7881C103.15 61.5971 103.635 61.4731 104.131 61.4199C104.227 61.4519 103.885 63.416 103.907 63.7256C103.906 63.7362 103.906 63.747 103.907 63.7576C105.049 63.9551 105.93 63.6402 107.072 62.9196C107.136 62.8663 107.205 62.925 107.146 62.9944Z" fill="#263238"/>
<path d="M104.494 64.0885C104.887 64.5567 105.394 64.9152 105.967 65.1293C106.285 65.231 106.626 65.231 106.944 65.1293C107.638 64.9105 107.622 64.2647 107.477 63.7203C107.39 63.4299 107.27 63.1506 107.12 62.8876C106.396 63.5594 105.475 63.9804 104.494 64.0885Z" fill="#263238"/>
<path d="M105.967 65.1293C106.285 65.231 106.626 65.231 106.944 65.1293C107.638 64.9105 107.622 64.2647 107.477 63.7203C107.103 63.749 106.75 63.9041 106.475 64.1601C106.201 64.4162 106.022 64.758 105.967 65.1293Z" fill="#F392B9"/>
<path d="M118.723 59.1996C119.043 58.0521 122.006 45.6802 121.68 44.3298C121.381 43.1023 120.036 43.604 120.02 43.5346C120.004 43.4652 119.956 42.3444 119.262 41.9334C119.025 41.8307 118.77 41.7777 118.512 41.7777C118.254 41.7777 117.999 41.8307 117.762 41.9334C117.762 41.9334 117.554 40.7538 116.812 40.4336C116.564 40.355 116.299 40.3427 116.045 40.3979C115.79 40.4531 115.554 40.574 115.361 40.7485C115.292 40.4351 115.149 40.143 114.942 39.8975C114.736 39.652 114.473 39.4604 114.176 39.3395C113.911 39.2627 113.628 39.2732 113.37 39.3693C113.111 39.4654 112.89 39.6421 112.74 39.8732C112.74 39.8732 112.425 38.747 111.673 38.5282C110.92 38.3094 110.231 39.1473 110.231 39.1473C110.12 38.8633 109.935 38.6144 109.694 38.4266C109.454 38.2388 109.168 38.1191 108.865 38.0799C108.571 38.0999 108.29 38.2071 108.057 38.3877C107.824 38.5683 107.65 38.8142 107.557 39.0939C107.557 39.0939 107.024 38.1012 106.116 38.0745C105.209 38.0478 104.931 39.142 104.931 39.142C104.931 39.142 104.569 38.1599 103.736 38.224C102.903 38.288 102.711 39.4515 102.711 39.4515C102.711 39.4515 102.247 38.3841 101.265 38.6883C99.765 39.174 99.5782 46.3473 99.2366 49.4643C99.2366 49.4643 99.6529 47.9752 100.304 47.9218C100.955 47.8685 101.414 48.8772 102.604 49.1441C104.296 49.5177 107.114 47.5429 109.447 48.0286C111.779 48.5143 113.391 50.8947 114.208 54.4334C115.099 58.5378 117.965 61.9216 118.723 59.1996Z" fill="#C7C7C7"/>
<path d="M107.387 61.7722C106.429 61.5969 105.581 61.0487 105.027 60.2481C104.474 59.4475 104.261 58.4599 104.435 57.5023C104.558 56.8295 104.867 56.2045 105.327 55.6984C105.787 55.1923 106.379 54.8254 107.037 54.6393C107.696 54.4533 108.393 54.4556 109.05 54.6459C109.707 54.8363 110.297 55.2071 110.754 55.7162C111.21 56.2253 111.515 56.8523 111.633 57.526C111.751 58.1996 111.678 58.8929 111.422 59.527C111.166 60.1612 110.737 60.7107 110.184 61.1132C109.631 61.5158 108.976 61.7552 108.294 61.8042C107.991 61.8304 107.687 61.8197 107.387 61.7722ZM104.915 57.6091C104.804 58.2261 104.878 58.8624 105.128 59.4374C105.378 60.0124 105.794 60.5003 106.321 60.8393C106.849 61.1784 107.465 61.3535 108.092 61.3423C108.719 61.3312 109.328 61.1344 109.843 60.7768C110.358 60.4192 110.756 59.9169 110.986 59.3334C111.215 58.7499 111.267 58.1114 111.133 57.4987C111 56.8859 110.688 56.3265 110.237 55.891C109.786 55.4556 109.215 55.1638 108.598 55.0525C108.34 55.004 108.076 54.9897 107.814 55.0098C107.11 55.0582 106.443 55.3402 105.918 55.8111C105.393 56.282 105.04 56.9148 104.915 57.6091Z" fill="#476DD1"/>
<path d="M99.6689 61.3879C98.1691 61.3185 97.0269 59.6212 97.1177 57.6091C97.1445 56.6969 97.4562 55.816 98.009 55.0899C98.2273 54.764 98.5261 54.5001 98.8763 54.3235C99.2266 54.1469 99.6165 54.0637 100.008 54.082C100.4 54.1002 100.781 54.2193 101.113 54.4277C101.445 54.636 101.718 54.9266 101.905 55.2713C102.388 56.0448 102.616 56.9502 102.556 57.8599C102.471 59.7707 101.302 61.2865 99.8877 61.3879H99.6689ZM98.3879 55.3941C97.9009 56.0398 97.6283 56.8219 97.6087 57.6304C97.5286 59.3757 98.4627 60.8328 99.6902 60.9022C100.918 60.9716 101.991 59.5839 102.071 57.8386C102.121 57.0313 101.922 56.228 101.5 55.5382C101.343 55.2676 101.123 55.0386 100.859 54.8705C100.596 54.7024 100.295 54.6001 99.9838 54.5721H99.8183C99.5358 54.6019 99.2626 54.6904 99.0163 54.832C98.77 54.9735 98.5559 55.165 98.3879 55.3941Z" fill="#476DD1"/>
<path d="M104.537 57.9507L104.867 57.5878C104.334 57.0967 103.085 56.4135 102.145 57.3262L102.487 57.6731C103.325 56.8565 104.488 57.9027 104.537 57.9507Z" fill="#476DD1"/>
<path d="M120.773 59.6426L121.221 59.4398C121.125 59.2316 120.255 57.4063 119.177 57.1821C118.099 56.9579 111.587 57.2782 111.304 57.2942V57.7799C113.188 57.6891 118.243 57.497 119.049 57.6571C119.855 57.8172 120.543 59.1409 120.773 59.6426Z" fill="#476DD1"/>
<path d="M115.83 58.746C115.83 58.746 118.446 54.3427 120.42 55.2447C122.395 56.1467 120.65 62.3753 118.483 63.3734C118.214 63.5208 117.918 63.6121 117.613 63.6418C117.307 63.6715 116.999 63.6389 116.707 63.5461C116.414 63.4533 116.144 63.3022 115.912 63.1019C115.679 62.9016 115.49 62.6562 115.355 62.3807L115.83 58.746Z" fill="#AD6359"/>
<path d="M119.855 57.0166C119.86 57.0191 119.865 57.0232 119.869 57.0284C119.872 57.0336 119.874 57.0397 119.874 57.046C119.874 57.0522 119.872 57.0583 119.869 57.0635C119.865 57.0687 119.86 57.0728 119.855 57.0753C118.339 57.8279 117.624 59.3383 117.159 60.8861C117.581 60.2724 118.189 59.9041 119.006 60.4005C119.014 60.4068 119.019 60.4154 119.022 60.4252C119.025 60.4349 119.024 60.4453 119.021 60.4547C119.017 60.4642 119.011 60.4723 119.002 60.4779C118.994 60.4835 118.984 60.4862 118.974 60.4859C118.692 60.4203 118.397 60.4431 118.129 60.5509C117.861 60.6588 117.632 60.8467 117.474 61.089C117.214 61.4968 116.999 61.9316 116.834 62.3859C116.77 62.53 116.513 62.4767 116.551 62.3112C116.553 62.2989 116.553 62.2862 116.551 62.2739C116.391 60.283 117.73 57.3795 119.855 57.0166Z" fill="#263238"/>
<path d="M128.106 77.9442C145.522 89.9211 158.091 108.698 159.303 112.637C162.233 122.244 166.604 139.163 167.277 146.763C167.527 149.576 145.869 149.053 145.506 146.059C144.38 136.676 140.345 116.266 140.243 115.919C139.523 113.448 133.374 102.757 127.055 91.1274C120.735 79.4974 120.762 72.9005 128.106 77.9442Z" fill="#AD6359"/>
<path d="M147.224 175.702C149.434 176.46 150.87 174.507 150.87 174.507C151.606 175.409 152.635 176.025 153.779 176.247C155.812 176.546 157.168 173.487 157.168 173.487C158.129 174.262 159.3 174.73 160.53 174.832C162.505 174.918 164.309 172.03 164.309 172.03C165.586 172.249 166.899 172.007 168.013 171.347C169.887 170.141 170.81 164.168 170.778 160.806C170.746 157.443 167.506 147.943 167.074 146.064H145.495C145.495 146.064 141.348 161.174 141.951 165.124C142.453 168.47 144.742 174.854 147.224 175.702Z" fill="#AD6359"/>
<path d="M150.523 174.363C149.14 170.952 148.836 167.323 148.329 163.715C148.329 163.698 148.336 163.681 148.348 163.669C148.36 163.657 148.376 163.651 148.393 163.651C148.41 163.651 148.426 163.657 148.438 163.669C148.45 163.681 148.457 163.698 148.457 163.715C148.916 167.307 150.085 170.765 150.694 174.331C150.691 174.35 150.683 174.368 150.67 174.383C150.657 174.397 150.639 174.407 150.62 174.41C150.601 174.414 150.581 174.411 150.564 174.403C150.546 174.394 150.532 174.38 150.523 174.363Z" fill="#263238"/>
<path d="M156.885 173.418C156.646 172.613 156.514 171.781 156.49 170.941C156.408 170.055 156.344 169.166 156.298 168.273C156.196 166.495 156.132 164.718 156.127 162.935C156.127 162.855 156.244 162.834 156.25 162.935C156.356 164.707 156.485 166.474 156.661 168.235C156.751 169.121 156.847 170.002 156.949 170.904C157.101 171.729 157.16 172.569 157.125 173.407C157.117 173.432 157.102 173.454 157.081 173.47C157.06 173.486 157.035 173.495 157.009 173.496C156.982 173.498 156.957 173.491 156.934 173.477C156.912 173.463 156.895 173.442 156.885 173.418Z" fill="#263238"/>
<path d="M164.304 171.955C164.097 171.224 164.018 170.462 164.069 169.703C164.037 168.897 164.005 168.102 163.967 167.275C163.893 165.673 163.813 164.04 163.679 162.423C163.679 162.406 163.686 162.39 163.698 162.378C163.71 162.366 163.726 162.359 163.743 162.359C163.76 162.359 163.777 162.366 163.789 162.378C163.801 162.39 163.807 162.406 163.807 162.423C163.946 164.062 164.112 165.7 164.245 167.344L164.421 169.762C164.54 170.493 164.527 171.239 164.384 171.966C164.38 171.974 164.373 171.981 164.366 171.985C164.358 171.989 164.349 171.991 164.34 171.989C164.331 171.988 164.323 171.984 164.316 171.978C164.31 171.972 164.305 171.964 164.304 171.955Z" fill="#263238"/>
<path d="M144.465 146.321L168.136 144.41C168.136 144.41 162.921 118.913 160.093 112.023C157.264 105.132 143.179 88.1332 128.49 78.0563C118.499 71.2086 119.118 77.0476 123.735 86.121C128.352 95.1944 139.213 115.962 139.747 117.611C140.28 119.26 144.465 146.321 144.465 146.321Z" fill="#476DD1"/>
<path d="M144.881 141.437C145.767 141.229 153.8 140.492 155.556 140.369L160.802 140.006C162.612 139.884 164.448 139.676 166.262 139.697C166.272 139.694 166.282 139.693 166.292 139.695C166.302 139.697 166.311 139.701 166.319 139.707C166.327 139.713 166.334 139.721 166.338 139.73C166.343 139.738 166.345 139.748 166.345 139.758C166.345 139.768 166.343 139.778 166.338 139.787C166.334 139.796 166.327 139.804 166.319 139.81C166.311 139.816 166.302 139.82 166.292 139.821C166.282 139.823 166.272 139.822 166.262 139.82C164.48 140.135 162.633 140.225 160.834 140.396L155.497 140.898C153.714 141.058 145.757 141.613 144.876 141.554C144.807 141.549 144.823 141.453 144.881 141.437Z" fill="#263238"/>
</svg>
