<svg width="153" height="34" viewBox="0 0 153 34" fill="none" xmlns="http://www.w3.org/2000/svg">
<path d="M0 7.37793H6.63318L11.6564 23.5922L16.5553 7.37793H23.1563L14.9729 32.8931H8.27537L0 7.37793Z" fill="#FBFBFB"/>
<path d="M36.2524 33.3578C28.5337 33.3578 22.9815 27.1895 22.9815 20.092C22.9815 13.0221 28.5291 6.85371 36.2524 6.85371C43.939 6.85371 49.4912 13.0221 49.4912 20.092C49.4912 27.1895 43.939 33.3578 36.2524 33.3578ZM36.2524 13.114C32.1907 13.114 29.2467 16.2741 29.2467 20.092C29.2467 23.9052 32.1907 27.0975 36.2524 27.0975C40.282 27.0975 43.226 23.9052 43.226 20.092C43.226 16.2741 40.282 13.114 36.2524 13.114ZM30.9809 2.3229L36.1881 0L41.3032 2.3229V6.50873L36.1881 4.21342L30.9809 6.50873V2.3229Z" fill="#FBFBFB"/>
<path d="M52.1086 23.1555V7.34595H58.3691V23.3717C58.3691 25.5106 59.1143 27.2493 61.5293 27.2493C63.9443 27.2493 64.6941 25.5106 64.6941 23.3717V7.34595H70.9547V23.1555C70.9547 29.3238 67.3575 33.2935 61.5293 33.2935C55.7058 33.2935 52.1086 29.2962 52.1086 23.1555Z" fill="#FBFBFB"/>
<path d="M78.0709 13.2382H72.9557V7.31824H89.4467V13.2382H84.2993V32.8932H78.0663V13.2382H78.0709Z" fill="black"/>
<path d="M89.4558 20.0874C89.4558 13.0175 95.0356 6.84912 102.727 6.84912C110.786 6.84912 117.019 14.011 115.809 21.9135H95.5968C96.0614 25.1379 98.9456 27.6494 102.695 27.6494C105.266 27.6494 107.502 26.2833 108.615 24.2686H115.345C113.73 29.5078 108.831 33.3486 102.727 33.3486C95.0356 33.3578 89.4558 27.1895 89.4558 20.0874ZM109.328 17.2677C108.523 14.5722 105.887 12.6495 102.662 12.6495C99.4378 12.6495 96.8342 14.5998 95.9648 17.2677H109.328Z" fill="black"/>
<path d="M117.87 20.1195C117.87 13.022 123.698 7.09741 131.141 7.09741V13.3623C127.079 13.3623 124.135 16.3982 124.135 20.1195C124.135 23.8407 127.079 26.8766 131.141 26.8766V33.1093C123.698 33.1093 117.87 27.217 117.87 20.1195Z" fill="black"/>
<path d="M134.214 7.31824H140.447V16.9272H146.739V7.31824H153V32.8932H146.739V22.9116H140.447V32.8932H134.214V7.31824V7.31824Z" fill="black"/>
</svg>
